<?xml version="1.0" encoding="UTF-8" standalone="no"?>
<!DOCTYPE svg PUBLIC "-//W3C//DTD SVG 1.1//EN"
 "http://www.w3.org/Graphics/SVG/1.1/DTD/svg11.dtd">
<!-- Generated by graphviz version 2.43.0 (0)
 -->
<!-- Title: %3 Pages: 1 -->
<svg width="1225pt" height="258pt"
 viewBox="0.00 0.00 1225.00 258.00" xmlns="http://www.w3.org/2000/svg" xmlns:xlink="http://www.w3.org/1999/xlink">
<g id="graph0" class="graph" transform="scale(1 1) rotate(0) translate(4 254)">
<title>%3</title>
<polygon fill="white" stroke="transparent" points="-4,4 -4,-254 1221,-254 1221,4 -4,4"/>
<g id="clust1" class="cluster">
<title>cluster_e2cb2372aa394285b453c3a5a44bd5ad</title>
<path fill="lightgrey" stroke="black" stroke-width="2" d="M1073,-8C1073,-8 1123,-8 1123,-8 1129,-8 1135,-14 1135,-20 1135,-20 1135,-230 1135,-230 1135,-236 1129,-242 1123,-242 1123,-242 1073,-242 1073,-242 1067,-242 1061,-236 1061,-230 1061,-230 1061,-20 1061,-20 1061,-14 1067,-8 1073,-8"/>
<text text-anchor="middle" x="1098" y="-227.6" font-family="JetBrains Mono" font-size="13.00">[* 2]</text>
</g>
<g id="clust2" class="cluster">
<title>cluster_a9afee39422e46049a9d192fa1277dd1</title>
<path fill="white" stroke="black" stroke-width="2" d="M94,-8C94,-8 1029,-8 1029,-8 1035,-8 1041,-14 1041,-20 1041,-20 1041,-230 1041,-230 1041,-236 1035,-242 1029,-242 1029,-242 94,-242 94,-242 88,-242 82,-236 82,-230 82,-230 82,-20 82,-20 82,-14 88,-8 94,-8"/>
<text text-anchor="middle" x="561.5" y="-227.6" font-family="JetBrains Mono" font-size="13.00">Rotations</text>
</g>
<!-- 26b540f16cae463686754ad71f763114 -->
<g id="node1" class="node">
<title>26b540f16cae463686754ad71f763114</title>
<text text-anchor="middle" x="27" y="-179.5" font-family="JetBrains Mono" font-size="15.00">0</text>
</g>
<!-- 954b189830f5470ab1c1711bee752726 -->
<g id="node2" class="node">
<title>954b189830f5470ab1c1711bee752726</title>
<path fill="#afd3e9" stroke="#3182bd" stroke-width="2.7" d="M255,-212C255,-212 102,-212 102,-212 96,-212 90,-206 90,-200 90,-200 90,-166 90,-166 90,-160 96,-154 102,-154 102,-154 255,-154 255,-154 261,-154 267,-160 267,-166 267,-166 267,-200 267,-200 267,-206 261,-212 255,-212"/>
<text text-anchor="middle" x="178.5" y="-178" font-family="JetBrains Mono" font-size="20.00">RX(phi/theta)</text>
</g>
<!-- 26b540f16cae463686754ad71f763114&#45;&#45;954b189830f5470ab1c1711bee752726 -->
<g id="edge1" class="edge">
<title>26b540f16cae463686754ad71f763114&#45;&#45;954b189830f5470ab1c1711bee752726</title>
<path fill="none" stroke="black" stroke-width="2.7" d="M54.04,-183C64.33,-183 76.8,-183 89.81,-183"/>
</g>
<!-- 2cebc6f384184320bc7d3e5a1b786676 -->
<g id="node10" class="node">
<title>2cebc6f384184320bc7d3e5a1b786676</title>
<text text-anchor="middle" x="27" y="-110.5" font-family="JetBrains Mono" font-size="15.00">1</text>
</g>
<!-- 26b540f16cae463686754ad71f763114&#45;&#45;2cebc6f384184320bc7d3e5a1b786676 -->
<!-- 66bc8be46c0f475d9585f46ed61a58ea -->
<g id="node3" class="node">
<title>66bc8be46c0f475d9585f46ed61a58ea</title>
<path fill="#b2e8c2" stroke="#2d954d" stroke-width="2.7" d="M418,-212C418,-212 324,-212 324,-212 318,-212 312,-206 312,-200 312,-200 312,-166 312,-166 312,-160 318,-154 324,-154 324,-154 418,-154 418,-154 424,-154 430,-160 430,-166 430,-166 430,-200 430,-200 430,-206 424,-212 418,-212"/>
<text text-anchor="middle" x="371" y="-178" font-family="JetBrains Mono" font-size="20.00">RX(phi)</text>
</g>
<!-- 954b189830f5470ab1c1711bee752726&#45;&#45;66bc8be46c0f475d9585f46ed61a58ea -->
<g id="edge2" class="edge">
<title>954b189830f5470ab1c1711bee752726&#45;&#45;66bc8be46c0f475d9585f46ed61a58ea</title>
<path fill="none" stroke="black" stroke-width="2.7" d="M267.22,-183C282.36,-183 297.75,-183 311.85,-183"/>
</g>
<!-- 0bc8ae814d514b2a8e5715c9557d5ac0 -->
<g id="node4" class="node">
<title>0bc8ae814d514b2a8e5715c9557d5ac0</title>
<path fill="#b2e8c2" stroke="#2d954d" stroke-width="2.7" d="M590,-212C590,-212 496,-212 496,-212 490,-212 484,-206 484,-200 484,-200 484,-166 484,-166 484,-160 490,-154 496,-154 496,-154 590,-154 590,-154 596,-154 602,-160 602,-166 602,-166 602,-200 602,-200 602,-206 596,-212 590,-212"/>
<text text-anchor="middle" x="543" y="-178" font-family="JetBrains Mono" font-size="20.00">RX(phi)</text>
</g>
<!-- 66bc8be46c0f475d9585f46ed61a58ea&#45;&#45;0bc8ae814d514b2a8e5715c9557d5ac0 -->
<g id="edge3" class="edge">
<title>66bc8be46c0f475d9585f46ed61a58ea&#45;&#45;0bc8ae814d514b2a8e5715c9557d5ac0</title>
<path fill="none" stroke="black" stroke-width="2.7" d="M430.03,-183C447.44,-183 466.53,-183 483.94,-183"/>
</g>
<!-- 8c99af8348fb49f697b59ed7f05532f7 -->
<g id="node5" class="node">
<title>8c99af8348fb49f697b59ed7f05532f7</title>
<path fill="#afd3e9" stroke="#3182bd" stroke-width="2.7" d="M833,-212C833,-212 659,-212 659,-212 653,-212 647,-206 647,-200 647,-200 647,-166 647,-166 647,-160 653,-154 659,-154 659,-154 833,-154 833,-154 839,-154 845,-160 845,-166 845,-166 845,-200 845,-200 845,-206 839,-212 833,-212"/>
<text text-anchor="middle" x="746" y="-178" font-family="JetBrains Mono" font-size="20.00">RX(phi + theta)</text>
</g>
<!-- 0bc8ae814d514b2a8e5715c9557d5ac0&#45;&#45;8c99af8348fb49f697b59ed7f05532f7 -->
<g id="edge4" class="edge">
<title>0bc8ae814d514b2a8e5715c9557d5ac0&#45;&#45;8c99af8348fb49f697b59ed7f05532f7</title>
<path fill="none" stroke="black" stroke-width="2.7" d="M602.14,-183C616.17,-183 631.54,-183 646.85,-183"/>
</g>
<!-- 303da04ad8534579a278eec8d13a8a99 -->
<g id="node6" class="node">
<title>303da04ad8534579a278eec8d13a8a99</title>
<ellipse fill="black" stroke="black" cx="910" cy="-183" rx="7.2" ry="7.2"/>
</g>
<!-- 8c99af8348fb49f697b59ed7f05532f7&#45;&#45;303da04ad8534579a278eec8d13a8a99 -->
<g id="edge5" class="edge">
<title>8c99af8348fb49f697b59ed7f05532f7&#45;&#45;303da04ad8534579a278eec8d13a8a99</title>
<path fill="none" stroke="black" stroke-width="2.7" d="M845.44,-183C869.82,-183 891.99,-183 902.53,-183"/>
</g>
<!-- 171ed11739394cad8a99ebaa01f6f2e1 -->
<g id="node7" class="node">
<title>171ed11739394cad8a99ebaa01f6f2e1</title>
<polygon fill="black" stroke="black" stroke-width="1.35" points="1004.5,-183.5 1003.5,-183.5 1003.5,-182.5 1004.5,-182.5 1004.5,-183.5"/>
</g>
<!-- 303da04ad8534579a278eec8d13a8a99&#45;&#45;171ed11739394cad8a99ebaa01f6f2e1 -->
<g id="edge6" class="edge">
<title>303da04ad8534579a278eec8d13a8a99&#45;&#45;171ed11739394cad8a99ebaa01f6f2e1</title>
<path fill="none" stroke="black" stroke-width="2.7" d="M917.32,-183C937.78,-183 1000.98,-183 1002.95,-183"/>
</g>
<!-- 7c47dbcfbb4d4e369df3b21961d92aa4 -->
<g id="node8" class="node">
<title>7c47dbcfbb4d4e369df3b21961d92aa4</title>
<path fill="#f0c1be" stroke="#d03a2f" stroke-width="2.7" d="M1115,-212C1115,-212 1081,-212 1081,-212 1075,-212 1069,-206 1069,-200 1069,-200 1069,-166 1069,-166 1069,-160 1075,-154 1081,-154 1081,-154 1115,-154 1115,-154 1121,-154 1127,-160 1127,-166 1127,-166 1127,-200 1127,-200 1127,-206 1121,-212 1115,-212"/>
<text text-anchor="middle" x="1098" y="-178" font-family="JetBrains Mono" font-size="20.00">Z</text>
</g>
<!-- 171ed11739394cad8a99ebaa01f6f2e1&#45;&#45;7c47dbcfbb4d4e369df3b21961d92aa4 -->
<g id="edge7" class="edge">
<title>171ed11739394cad8a99ebaa01f6f2e1&#45;&#45;7c47dbcfbb4d4e369df3b21961d92aa4</title>
<path fill="none" stroke="black" stroke-width="2.7" d="M1005.07,-183C1006.81,-183 1042.28,-183 1068.65,-183"/>
</g>
<!-- 35119e3361ce4d2db174d334a42c6c82 -->
<g id="node9" class="node">
<title>35119e3361ce4d2db174d334a42c6c82</title>
</g>
<!-- 7c47dbcfbb4d4e369df3b21961d92aa4&#45;&#45;35119e3361ce4d2db174d334a42c6c82 -->
<g id="edge8" class="edge">
<title>7c47dbcfbb4d4e369df3b21961d92aa4&#45;&#45;35119e3361ce4d2db174d334a42c6c82</title>
<path fill="none" stroke="black" stroke-width="2.7" d="M1127.48,-183C1138.81,-183 1151.76,-183 1162.85,-183"/>
</g>
<!-- 68707ac3073943c19bb4fef53d488a02 -->
<g id="node18" class="node">
<title>68707ac3073943c19bb4fef53d488a02</title>
</g>
<!-- 35119e3361ce4d2db174d334a42c6c82&#45;&#45;68707ac3073943c19bb4fef53d488a02 -->
<!-- 1ef6a3a4e17642f882934e3279e7f77c -->
<g id="node11" class="node">
<title>1ef6a3a4e17642f882934e3279e7f77c</title>
<path fill="#afd3e9" stroke="#3182bd" stroke-width="2.7" d="M246,-143C246,-143 111,-143 111,-143 105,-143 99,-137 99,-131 99,-131 99,-97 99,-97 99,-91 105,-85 111,-85 111,-85 246,-85 246,-85 252,-85 258,-91 258,-97 258,-97 258,-131 258,-131 258,-137 252,-143 246,-143"/>
<text text-anchor="middle" x="178.5" y="-109" font-family="JetBrains Mono" font-size="20.00">RY(2*theta)</text>
</g>
<!-- 2cebc6f384184320bc7d3e5a1b786676&#45;&#45;1ef6a3a4e17642f882934e3279e7f77c -->
<g id="edge9" class="edge">
<title>2cebc6f384184320bc7d3e5a1b786676&#45;&#45;1ef6a3a4e17642f882934e3279e7f77c</title>
<path fill="none" stroke="black" stroke-width="2.7" d="M54.04,-114C66.67,-114 82.59,-114 98.76,-114"/>
</g>
<!-- 85fa7032abce435789bb406217b61487 -->
<g id="node19" class="node">
<title>85fa7032abce435789bb406217b61487</title>
<text text-anchor="middle" x="27" y="-41.5" font-family="JetBrains Mono" font-size="15.00">2</text>
</g>
<!-- 2cebc6f384184320bc7d3e5a1b786676&#45;&#45;85fa7032abce435789bb406217b61487 -->
<!-- fecdfd8c24c04fabaeb8767d6c1db87e -->
<g id="node12" class="node">
<title>fecdfd8c24c04fabaeb8767d6c1db87e</title>
<path fill="#afd3e9" stroke="#3182bd" stroke-width="2.7" d="M427,-143C427,-143 315,-143 315,-143 309,-143 303,-137 303,-131 303,-131 303,-97 303,-97 303,-91 309,-85 315,-85 315,-85 427,-85 427,-85 433,-85 439,-91 439,-97 439,-97 439,-131 439,-131 439,-137 433,-143 427,-143"/>
<text text-anchor="middle" x="371" y="-109" font-family="JetBrains Mono" font-size="20.00">RY(theta)</text>
</g>
<!-- 1ef6a3a4e17642f882934e3279e7f77c&#45;&#45;fecdfd8c24c04fabaeb8767d6c1db87e -->
<g id="edge10" class="edge">
<title>1ef6a3a4e17642f882934e3279e7f77c&#45;&#45;fecdfd8c24c04fabaeb8767d6c1db87e</title>
<path fill="none" stroke="black" stroke-width="2.7" d="M258.08,-114C272.94,-114 288.36,-114 302.83,-114"/>
</g>
<!-- 9ee0fa9458be4b16b1637627582563a6 -->
<g id="node13" class="node">
<title>9ee0fa9458be4b16b1637627582563a6</title>
<path fill="#afd3e9" stroke="#3182bd" stroke-width="2.7" d="M599,-143C599,-143 487,-143 487,-143 481,-143 475,-137 475,-131 475,-131 475,-97 475,-97 475,-91 481,-85 487,-85 487,-85 599,-85 599,-85 605,-85 611,-91 611,-97 611,-97 611,-131 611,-131 611,-137 605,-143 599,-143"/>
<text text-anchor="middle" x="543" y="-109" font-family="JetBrains Mono" font-size="20.00">RY(theta)</text>
</g>
<!-- fecdfd8c24c04fabaeb8767d6c1db87e&#45;&#45;9ee0fa9458be4b16b1637627582563a6 -->
<g id="edge11" class="edge">
<title>fecdfd8c24c04fabaeb8767d6c1db87e&#45;&#45;9ee0fa9458be4b16b1637627582563a6</title>
<path fill="none" stroke="black" stroke-width="2.7" d="M439.19,-114C450.88,-114 463.05,-114 474.74,-114"/>
</g>
<!-- 1133e23491a142dcb8039ba3b936bdfc -->
<g id="node14" class="node">
<title>1133e23491a142dcb8039ba3b936bdfc</title>
<path fill="#afd3e9" stroke="#3182bd" stroke-width="2.7" d="M818,-143C818,-143 674,-143 674,-143 668,-143 662,-137 662,-131 662,-131 662,-97 662,-97 662,-91 668,-85 674,-85 674,-85 818,-85 818,-85 824,-85 830,-91 830,-97 830,-97 830,-131 830,-131 830,-137 824,-143 818,-143"/>
<text text-anchor="middle" x="746" y="-109" font-family="JetBrains Mono" font-size="20.00">RY(theta**2)</text>
</g>
<!-- 9ee0fa9458be4b16b1637627582563a6&#45;&#45;1133e23491a142dcb8039ba3b936bdfc -->
<g id="edge12" class="edge">
<title>9ee0fa9458be4b16b1637627582563a6&#45;&#45;1133e23491a142dcb8039ba3b936bdfc</title>
<path fill="none" stroke="black" stroke-width="2.7" d="M611.21,-114C627.42,-114 644.92,-114 661.76,-114"/>
</g>
<!-- e73327d4bdd24bd0a86cb52ceb83ff42 -->
<g id="node15" class="node">
<title>e73327d4bdd24bd0a86cb52ceb83ff42</title>
<path fill="#f0c1be" stroke="#d03a2f" stroke-width="2.7" d="M927,-143C927,-143 893,-143 893,-143 887,-143 881,-137 881,-131 881,-131 881,-97 881,-97 881,-91 887,-85 893,-85 893,-85 927,-85 927,-85 933,-85 939,-91 939,-97 939,-97 939,-131 939,-131 939,-137 933,-143 927,-143"/>
<text text-anchor="middle" x="910" y="-109" font-family="JetBrains Mono" font-size="20.00">X</text>
</g>
<!-- 1133e23491a142dcb8039ba3b936bdfc&#45;&#45;e73327d4bdd24bd0a86cb52ceb83ff42 -->
<g id="edge13" class="edge">
<title>1133e23491a142dcb8039ba3b936bdfc&#45;&#45;e73327d4bdd24bd0a86cb52ceb83ff42</title>
<path fill="none" stroke="black" stroke-width="2.7" d="M830.37,-114C848.51,-114 866.5,-114 880.68,-114"/>
</g>
<!-- e73327d4bdd24bd0a86cb52ceb83ff42&#45;&#45;303da04ad8534579a278eec8d13a8a99 -->
<g id="edge25" class="edge">
<title>e73327d4bdd24bd0a86cb52ceb83ff42&#45;&#45;303da04ad8534579a278eec8d13a8a99</title>
<path fill="none" stroke="black" stroke-width="2.7" d="M910,-143.11C910,-153.91 910,-164.72 910,-175.52"/>
</g>
<!-- 3a68c41a203c455b936559655286589e -->
<g id="node16" class="node">
<title>3a68c41a203c455b936559655286589e</title>
<ellipse fill="black" stroke="black" cx="1004" cy="-114" rx="7.2" ry="7.2"/>
</g>
<!-- e73327d4bdd24bd0a86cb52ceb83ff42&#45;&#45;3a68c41a203c455b936559655286589e -->
<g id="edge14" class="edge">
<title>e73327d4bdd24bd0a86cb52ceb83ff42&#45;&#45;3a68c41a203c455b936559655286589e</title>
<path fill="none" stroke="black" stroke-width="2.7" d="M939.1,-114C959.18,-114 984.65,-114 996.45,-114"/>
</g>
<!-- 26e2fe08d3634ecf97d39eafd648e561 -->
<g id="node17" class="node">
<title>26e2fe08d3634ecf97d39eafd648e561</title>
<path fill="#f0c1be" stroke="#d03a2f" stroke-width="2.7" d="M1115,-143C1115,-143 1081,-143 1081,-143 1075,-143 1069,-137 1069,-131 1069,-131 1069,-97 1069,-97 1069,-91 1075,-85 1081,-85 1081,-85 1115,-85 1115,-85 1121,-85 1127,-91 1127,-97 1127,-97 1127,-131 1127,-131 1127,-137 1121,-143 1115,-143"/>
<text text-anchor="middle" x="1098" y="-109" font-family="JetBrains Mono" font-size="20.00">Z</text>
</g>
<!-- 3a68c41a203c455b936559655286589e&#45;&#45;26e2fe08d3634ecf97d39eafd648e561 -->
<g id="edge15" class="edge">
<title>3a68c41a203c455b936559655286589e&#45;&#45;26e2fe08d3634ecf97d39eafd648e561</title>
<path fill="none" stroke="black" stroke-width="2.7" d="M1011.32,-114C1023.02,-114 1048.66,-114 1068.87,-114"/>
</g>
<!-- 26e2fe08d3634ecf97d39eafd648e561&#45;&#45;68707ac3073943c19bb4fef53d488a02 -->
<g id="edge16" class="edge">
<title>26e2fe08d3634ecf97d39eafd648e561&#45;&#45;68707ac3073943c19bb4fef53d488a02</title>
<path fill="none" stroke="black" stroke-width="2.7" d="M1127.48,-114C1138.81,-114 1151.76,-114 1162.85,-114"/>
</g>
<!-- a30b421b3506425593cca194a911a231 -->
<g id="node27" class="node">
<title>a30b421b3506425593cca194a911a231</title>
</g>
<!-- 68707ac3073943c19bb4fef53d488a02&#45;&#45;a30b421b3506425593cca194a911a231 -->
<!-- 9d65e5dc0eb442f3b9f953b25f2ef97b -->
<g id="node20" class="node">
<title>9d65e5dc0eb442f3b9f953b25f2ef97b</title>
<path fill="#b2e8c2" stroke="#2d954d" stroke-width="2.7" d="M250,-74C250,-74 107,-74 107,-74 101,-74 95,-68 95,-62 95,-62 95,-28 95,-28 95,-22 101,-16 107,-16 107,-16 250,-16 250,-16 256,-16 262,-22 262,-28 262,-28 262,-62 262,-62 262,-68 256,-74 250,-74"/>
<text text-anchor="middle" x="178.5" y="-40" font-family="JetBrains Mono" font-size="20.00">RZ(cos(phi))</text>
</g>
<!-- 85fa7032abce435789bb406217b61487&#45;&#45;9d65e5dc0eb442f3b9f953b25f2ef97b -->
<g id="edge17" class="edge">
<title>85fa7032abce435789bb406217b61487&#45;&#45;9d65e5dc0eb442f3b9f953b25f2ef97b</title>
<path fill="none" stroke="black" stroke-width="2.7" d="M54.04,-45C65.67,-45 80.08,-45 94.91,-45"/>
</g>
<!-- d4d638c932854736b939a451515e2a61 -->
<g id="node21" class="node">
<title>d4d638c932854736b939a451515e2a61</title>
<path fill="#b2e8c2" stroke="#2d954d" stroke-width="2.7" d="M418,-74C418,-74 324,-74 324,-74 318,-74 312,-68 312,-62 312,-62 312,-28 312,-28 312,-22 318,-16 324,-16 324,-16 418,-16 418,-16 424,-16 430,-22 430,-28 430,-28 430,-62 430,-62 430,-68 424,-74 418,-74"/>
<text text-anchor="middle" x="371" y="-40" font-family="JetBrains Mono" font-size="20.00">RZ(phi)</text>
</g>
<!-- 9d65e5dc0eb442f3b9f953b25f2ef97b&#45;&#45;d4d638c932854736b939a451515e2a61 -->
<g id="edge18" class="edge">
<title>9d65e5dc0eb442f3b9f953b25f2ef97b&#45;&#45;d4d638c932854736b939a451515e2a61</title>
<path fill="none" stroke="black" stroke-width="2.7" d="M262.22,-45C278.99,-45 296.29,-45 311.98,-45"/>
</g>
<!-- f0ff01b3df5c4f8d931afebe7312a1b1 -->
<g id="node22" class="node">
<title>f0ff01b3df5c4f8d931afebe7312a1b1</title>
<path fill="#b2e8c2" stroke="#2d954d" stroke-width="2.7" d="M590,-74C590,-74 496,-74 496,-74 490,-74 484,-68 484,-62 484,-62 484,-28 484,-28 484,-22 490,-16 496,-16 496,-16 590,-16 590,-16 596,-16 602,-22 602,-28 602,-28 602,-62 602,-62 602,-68 596,-74 590,-74"/>
<text text-anchor="middle" x="543" y="-40" font-family="JetBrains Mono" font-size="20.00">RZ(phi)</text>
</g>
<!-- d4d638c932854736b939a451515e2a61&#45;&#45;f0ff01b3df5c4f8d931afebe7312a1b1 -->
<g id="edge19" class="edge">
<title>d4d638c932854736b939a451515e2a61&#45;&#45;f0ff01b3df5c4f8d931afebe7312a1b1</title>
<path fill="none" stroke="black" stroke-width="2.7" d="M430.03,-45C447.44,-45 466.53,-45 483.94,-45"/>
</g>
<!-- 646839e3e2f04f2d9f06ae3abaf2e534 -->
<g id="node23" class="node">
<title>646839e3e2f04f2d9f06ae3abaf2e534</title>
<path fill="#b2e8c2" stroke="#2d954d" stroke-width="2.7" d="M817.5,-74C817.5,-74 674.5,-74 674.5,-74 668.5,-74 662.5,-68 662.5,-62 662.5,-62 662.5,-28 662.5,-28 662.5,-22 668.5,-16 674.5,-16 674.5,-16 817.5,-16 817.5,-16 823.5,-16 829.5,-22 829.5,-28 829.5,-28 829.5,-62 829.5,-62 829.5,-68 823.5,-74 817.5,-74"/>
<text text-anchor="middle" x="746" y="-40" font-family="JetBrains Mono" font-size="20.00">RZ(cos(phi))</text>
</g>
<!-- f0ff01b3df5c4f8d931afebe7312a1b1&#45;&#45;646839e3e2f04f2d9f06ae3abaf2e534 -->
<g id="edge20" class="edge">
<title>f0ff01b3df5c4f8d931afebe7312a1b1&#45;&#45;646839e3e2f04f2d9f06ae3abaf2e534</title>
<path fill="none" stroke="black" stroke-width="2.7" d="M602.14,-45C620.92,-45 642.12,-45 662.33,-45"/>
</g>
<!-- 6eace30397284347af070161f03ccf1f -->
<g id="node24" class="node">
<title>6eace30397284347af070161f03ccf1f</title>
<polygon fill="black" stroke="black" stroke-width="1.35" points="910.5,-45.5 909.5,-45.5 909.5,-44.5 910.5,-44.5 910.5,-45.5"/>
</g>
<!-- 646839e3e2f04f2d9f06ae3abaf2e534&#45;&#45;6eace30397284347af070161f03ccf1f -->
<g id="edge21" class="edge">
<title>646839e3e2f04f2d9f06ae3abaf2e534&#45;&#45;6eace30397284347af070161f03ccf1f</title>
<path fill="none" stroke="black" stroke-width="2.7" d="M829.9,-45C868.51,-45 906.55,-45 908.89,-45"/>
</g>
<!-- 39470a3183c24a83ad5df53cc7f56b24 -->
<g id="node25" class="node">
<title>39470a3183c24a83ad5df53cc7f56b24</title>
<path fill="#f0c1be" stroke="#d03a2f" stroke-width="2.7" d="M1021,-74C1021,-74 987,-74 987,-74 981,-74 975,-68 975,-62 975,-62 975,-28 975,-28 975,-22 981,-16 987,-16 987,-16 1021,-16 1021,-16 1027,-16 1033,-22 1033,-28 1033,-28 1033,-62 1033,-62 1033,-68 1027,-74 1021,-74"/>
<text text-anchor="middle" x="1004" y="-40" font-family="JetBrains Mono" font-size="20.00">X</text>
</g>
<!-- 6eace30397284347af070161f03ccf1f&#45;&#45;39470a3183c24a83ad5df53cc7f56b24 -->
<g id="edge22" class="edge">
<title>6eace30397284347af070161f03ccf1f&#45;&#45;39470a3183c24a83ad5df53cc7f56b24</title>
<path fill="none" stroke="black" stroke-width="2.7" d="M911.07,-45C912.81,-45 948.28,-45 974.65,-45"/>
</g>
<!-- 39470a3183c24a83ad5df53cc7f56b24&#45;&#45;3a68c41a203c455b936559655286589e -->
<g id="edge26" class="edge">
<title>39470a3183c24a83ad5df53cc7f56b24&#45;&#45;3a68c41a203c455b936559655286589e</title>
<path fill="none" stroke="black" stroke-width="2.7" d="M1004,-74.11C1004,-84.91 1004,-95.72 1004,-106.52"/>
</g>
<!-- b742925bb6f5498e901ac0f125ff0504 -->
<g id="node26" class="node">
<title>b742925bb6f5498e901ac0f125ff0504</title>
<path fill="#f0c1be" stroke="#d03a2f" stroke-width="2.7" d="M1115,-74C1115,-74 1081,-74 1081,-74 1075,-74 1069,-68 1069,-62 1069,-62 1069,-28 1069,-28 1069,-22 1075,-16 1081,-16 1081,-16 1115,-16 1115,-16 1121,-16 1127,-22 1127,-28 1127,-28 1127,-62 1127,-62 1127,-68 1121,-74 1115,-74"/>
<text text-anchor="middle" x="1098" y="-40" font-family="JetBrains Mono" font-size="20.00">Z</text>
</g>
<!-- 39470a3183c24a83ad5df53cc7f56b24&#45;&#45;b742925bb6f5498e901ac0f125ff0504 -->
<g id="edge23" class="edge">
<title>39470a3183c24a83ad5df53cc7f56b24&#45;&#45;b742925bb6f5498e901ac0f125ff0504</title>
<path fill="none" stroke="black" stroke-width="2.7" d="M1033.1,-45C1044.41,-45 1057.43,-45 1068.75,-45"/>
</g>
<!-- b742925bb6f5498e901ac0f125ff0504&#45;&#45;a30b421b3506425593cca194a911a231 -->
<g id="edge24" class="edge">
<title>b742925bb6f5498e901ac0f125ff0504&#45;&#45;a30b421b3506425593cca194a911a231</title>
<path fill="none" stroke="black" stroke-width="2.7" d="M1127.48,-45C1138.81,-45 1151.76,-45 1162.85,-45"/>
</g>
</g>
</svg>
